<svg width="20" height="20" viewBox="0 0 20 20" fill="none" xmlns="http://www.w3.org/2000/svg">
<path d="M19.992 4.94498C19.986 4.83798 19.962 4.73698 19.924 4.64098C19.918 4.62598 19.92 4.60998 19.914 4.59398C19.906 4.57598 19.891 4.56598 19.882 4.54898C19.838 4.46298 19.783 4.38498 19.715 4.31398C19.698 4.29698 19.686 4.27598 19.668 4.26098C19.591 4.19098 19.504 4.13098 19.406 4.08698L10.406 0.0869824C10.146 -0.0280176 9.853 -0.0280176 9.594 0.0869824L0.594 4.08698C0.495 4.12998 0.409 4.19098 0.331 4.26098C0.315 4.27598 0.303 4.29498 0.287 4.31098C0.219 4.38198 0.163 4.46098 0.118 4.54798C0.109 4.56498 0.094 4.57598 0.086 4.59398C0.079 4.60898 0.082 4.62498 0.076 4.64098C0.038 4.73698 0.0139999 4.83798 0.0079999 4.94498C0.0069999 4.95998 0.00199993 4.97498 0.000999928 4.98998C0.000999928 4.99298 0 4.99698 0 4.99998V15C0 15.395 0.232 15.753 0.594 15.914L9.594 19.914C9.596 19.915 9.599 19.915 9.602 19.916C9.724 19.969 9.858 20 10 20C10.142 20 10.276 19.969 10.399 19.915C10.401 19.914 10.404 19.915 10.407 19.913L19.407 15.913C19.768 15.753 20 15.395 20 15V4.99998C20 4.99698 19.999 4.99298 19.999 4.98998C19.998 4.97498 19.993 4.95998 19.992 4.94498ZM10 2.09398L16.538 4.99998L10 7.90598L3.462 4.99998L10 2.09398ZM2 6.53898L9 9.64998V17.462L2 14.35V6.53898Z" fill="white"/>
</svg>
