<svg 
          width="20" 
          height="18.350000381469727" fill="none" 
          xmlns="http://www.w3.org/2000/svg">
          <path d="M 14.5 0 C 11.605000019073486 0 10 2.0900001525878906 10 2.0900001525878906 C 10 2.0900001525878906 8.394999980926514 0 5.5 0 C 2.4619998931884766 0 0 2.4619998931884766 0 5.5 C 0 6.003000020980835 0.07500006258487701 6.504999995231628 0.20300006866455078 7 L 3.6669998168945312 7 L 6.246000289916992 5.065999984741211 L 8.246000289916992 8.065999984741211 L 9.666999816894531 7 L 11.277999877929688 7 C 11.623999863862991 6.4049999713897705 12.262000024318695 6 13 6 C 14.105000019073486 6 15 6.894999980926514 15 8 C 15 9.105000019073486 14.105000019073486 10 13 10 C 12.262000024318695 10 11.624000430107117 9.59500002861023 11.277000427246094 9 L 10.333000183105469 9 L 7.753999710083008 10.934000015258789 L 5.754000186920166 7.934000015258789 L 4.333000183105469 9 L 1.0230000019073486 9 C 2.537000060081482 11.763999938964844 5.3049997091293335 14.07999974489212 6.279999732971191 14.989999771118164 C 7.857999682426453 16.459999799728394 10 18.350000381469727 10 18.350000381469727 C 10 18.350000381469727 12.14199984073639 16.459999799728394 13.718999862670898 14.989999771118164 C 15.087999820709229 13.712999820709229 20 9.671000003814697 20 5.5 C 20 2.4619998931884766 17.538000106811523 0 14.5 0 Z" fill="rgb(255,0,153.00009727478027)"/>
        </svg>