<svg width="20" height="19" viewBox="0 0 20 19" fill="none" xmlns="http://www.w3.org/2000/svg">
<path d="M14.5 0C11.605 0 10 2.09 10 2.09C10 2.09 8.395 0 5.5 0C2.462 0 0 2.462 0 5.5C0 6.003 0.0750001 6.505 0.203 7H3.667L6.246 5.066L8.246 8.066L9.667 7H11.278C11.624 6.405 12.262 6 13 6C14.105 6 15 6.895 15 8C15 9.105 14.105 10 13 10C12.262 10 11.624 9.595 11.277 9H10.333L7.754 10.934L5.754 7.934L4.333 9H1.023C2.537 11.764 5.305 14.08 6.28 14.99C7.858 16.46 10 18.35 10 18.35C10 18.35 12.142 16.46 13.719 14.99C15.088 13.713 20 9.671 20 5.5C20 2.462 17.538 0 14.5 0Z" fill="#FF0099"/>
</svg>
