<svg width="26" height="28" viewBox="0 0 26 28" fill="none" xmlns="http://www.w3.org/2000/svg">
<path d="M13.3334 0.666687L9.33335 2.95835L13.3334 5.25002L17.3334 2.95835L13.3334 0.666687ZM8.66669 4.08335V8.66669L12.6667 10.9584V6.41669L8.66669 4.08335ZM18 4.08335L14 6.41669V10.9584L18 8.66669V4.08335ZM7.33335 6.16669L2.00002 8.16669V13.25L4.66669 11.7084V10L7.33335 9.00002V6.16669ZM19.3334 6.16669V9.00002L22 10V11.7084L24.6667 13.25V8.16669L19.3334 6.16669ZM5.33335 13.0417L1.33335 15.3334L5.33335 17.625L9.33335 15.3334L5.33335 13.0417ZM21.3334 13.0417L17.3334 15.3334L21.3334 17.625L25.3334 15.3334L21.3334 13.0417ZM0.666687 16.5V21.0417L4.66669 23.3334V18.7917L0.666687 16.5ZM10 16.5L6.00002 18.7917V23.3334L10 21.0417V16.5ZM16.6667 16.5V21.0417L20.6667 23.3334V18.7917L16.6667 16.5ZM26 16.5L22 18.7917V23.3334L26 21.0417V16.5ZM9.75002 22.5417L6.95835 24.125L13.3334 27.3334L19.7084 24.125L16.9167 22.5417L13.3334 24.3334L9.75002 22.5417Z" fill="white" fill-opacity="0.5"/>
</svg>
