<svg width="32" height="32" viewBox="0 0 32 32" fill="none" xmlns="http://www.w3.org/2000/svg">
<path d="M21.3332 2.67708C19.2833 2.67708 17.2337 3.4545 15.677 5.01042L5.01029 15.6771C1.89644 18.7893 1.89683 23.8761 5.01029 26.9896V26.9922C6.56737 28.5476 8.62099 29.3333 10.6665 29.3333C12.7121 29.3333 14.7668 28.5456 16.3228 26.9896L26.9895 16.3255V16.3229C30.1017 13.2105 30.1024 8.12335 26.9895 5.01042C25.4327 3.4545 23.3831 2.67708 21.3332 2.67708ZM21.3332 5.32552C22.6953 5.32552 24.0568 5.84909 25.104 6.89583C27.1986 8.99037 27.1982 12.3444 25.104 14.4375L20.104 19.4375L12.5624 11.8958L17.5624 6.89583C18.6097 5.84909 19.9711 5.32552 21.3332 5.32552Z" fill="#FFD771"/>
</svg>
